<?xml version="1.0" encoding="utf-8"?>
<!-- Generator: Adobe Illustrator 26.0.1, SVG Export Plug-In . SVG Version: 6.00 Build 0)  -->
<svg version="1.1" id="Lag_2" xmlns="http://www.w3.org/2000/svg" xmlns:xlink="http://www.w3.org/1999/xlink" x="0px" y="0px"
	 viewBox="0 0 587.31 523.67" style="enable-background:new 0 0 587.31 523.67;" xml:space="preserve">
<style type="text/css">
	.st0{fill:#8A0002;stroke:#8A0002;stroke-width:0.9995;stroke-miterlimit:10;}
	.st1{fill:#FFFFFF;stroke:#8A0002;stroke-miterlimit:10;}
	.st2{fill:#8A0002;stroke:#8A0002;stroke-miterlimit:10;}
</style>
<path class="st0" d="M216.17,441.58c-9.93,3.03-20.68-2.03-24.7-11.63c-7.75-28.91-15.5-57.82-23.25-86.73
	c-0.41-9.9,6.19-18.8,15.7-21.24c9.7-2.5,19.96,2.36,24.22,11.53c7.35,28.26,14.71,56.52,22.06,84.78
	C232.14,428.46,226.04,438.57,216.17,441.58z"/>
<path class="st0" d="M312.99,337.24v87.61c-0.68,10.33-9.13,18.57-19.44,19c-10.37,0.43-19.51-7.17-20.98-17.48
	c-0.22-29.93-0.43-59.86-0.65-89.79c2.09-9.68,10.71-16.63,20.53-16.6C302.47,320.01,311.17,327.29,312.99,337.24z"/>
<path class="st0" d="M415.61,343.27c-6.86,28.38-13.73,56.77-20.59,85.15c-3.08,9.89-13.23,15.91-23.36,13.91
	c-10.18-2.02-17.28-11.56-16.28-21.92c6.82-29.14,13.64-58.29,20.46-87.43c4.31-8.93,14.32-13.65,23.86-11.31
	C409.43,324.05,416.18,333.17,415.61,343.27z"/>
<path class="st0" d="M561.94,278.52c-0.04-28.24-0.08-56.47-0.12-84.7c-0.09-1.38-0.7-8.45-6.77-13.85
	c-5.07-4.51-11.51-4.95-14.53-5.12c-13.11-0.71-48.74-0.92-96.57,0.09c-0.72-0.07-2.45-0.32-4.13-1.62
	c-1.49-1.16-2.17-2.56-2.45-3.22c-25.55-50.82-51.11-101.64-76.66-152.46c-7.11-8.64-19.29-10.53-27.84-5
	c-7.2,4.66-10.74,13.88-8.56,22.84c22.25,45.22,44.5,90.44,66.75,135.66c0.16,0.29,0.49,1,0.28,1.78c-0.31,1.15-1.69,2-3.36,1.86
	H195.45c-0.56-0.1-0.88-0.35-1.03-0.5c-0.71-0.68-0.81-1.99-0.19-3.22c22.23-44.44,44.45-88.87,66.67-133.3
	c3.25-10.13-1.26-21.06-10.24-25.71c-9.77-5.07-22.43-1.46-28.32,8.57c-25.12,50.26-50.24,100.51-75.36,150.77
	c-0.24,0.51-0.8,1.54-1.97,2.39c-1.26,0.9-2.52,1.08-3.08,1.13c-33.01,0.22-66.02,0.44-99.03,0.66c-1.26-0.01-9.37,0.07-14.98,6.58
	c-3.51,4.07-4.25,8.57-4.45,10.44v89.72c0.42,2.03,1.59,6.37,5.22,10.44c4.29,4.81,9.43,6.37,11.41,6.86
	c5.35,0.03,10.7,0.07,16.05,0.1c0.29,0.02,0.72,0.09,1.2,0.3c0.6,0.27,0.97,0.63,1.17,0.84c0.59,0.58,0.85,1.18,1.14,1.85
	c0.17,0.39,0.39,0.95,0.55,1.65c15.38,61.38,30.77,122.76,46.15,184.14c0.22,1.81,1.11,7.09,5.51,11.63
	c5.67,5.85,12.93,6.1,14.39,6.12h334.53c1.7-0.18,7.87-1.03,12.95-6.28c4.64-4.78,5.54-10.31,5.76-12.11
	C494.75,426,510,364.15,525.24,302.3c0.04-0.23,0.26-1.49,1.44-2.34c1.14-0.82,2.36-0.66,2.6-0.62c3.75,0.03,7.5,0.06,11.25,0.09
	c1.35,0.06,8.79,0.27,14.94-5.48C562,287.84,561.97,279.78,561.94,278.52z M481.65,303.85c-0.03,0.28-0.08,0.51-0.11,0.67
	c-12.9,51.56-25.81,103.11-38.71,154.67c-0.01,0.25-0.05,0.6-0.12,1.01c-0.08,0.44-0.17,0.95-0.43,1.56
	c-0.2,0.46-0.41,0.92-0.88,1.34c-0.37,0.34-0.74,0.49-1.01,0.6c-0.62,0.25-1.17,0.28-1.54,0.3c-0.56,0.03-0.96-0.03-0.99-0.03
	H145.99c-0.2,0.02-0.5,0.04-0.83-0.04c-1.15-0.24-1.75-1.23-1.8-1.32c-0.17-0.29-0.32-0.94-0.61-2.23c-0.04-0.18-0.08-0.34-0.1-0.44
	c-22.67-89.73-39.15-155-39.5-156.21c-0.12-0.42-0.23-1.06-0.1-1.8c0.06-0.31,0.14-0.75,0.45-1.22c0.44-0.65,1.03-0.93,1.31-1.06
	c0.78-0.35,1.48-0.3,1.59-0.3c1.33,0.04,155.98,0.06,371.19,0.07c0.2,0.01,0.5,0.03,0.86,0.08c1.31,0.19,2.32,0.33,2.88,1.02
	C481.97,301.31,481.82,302.54,481.65,303.85z M519.34,255.17c0,1.32-1.06,2.39-2.38,2.39H68.13c-1.32,0-2.39-1.07-2.39-2.39v-35.01
	c0-1.32,1.07-2.39,2.39-2.39h448.83c1.32,0,2.38,1.07,2.38,2.39V255.17z"/>
<path class="st1" d="M216.17,441.58c-9.93,3.03-20.68-2.03-24.7-11.63c-7.75-28.91-15.5-57.82-23.25-86.73
	c-0.41-9.9,6.19-18.8,15.7-21.24c9.7-2.5,19.96,2.36,24.22,11.53c7.35,28.26,14.71,56.52,22.06,84.78
	C232.14,428.46,226.04,438.57,216.17,441.58z"/>
<path class="st1" d="M312.99,337.24v87.61c-0.68,10.33-9.13,18.57-19.44,19c-10.37,0.43-19.51-7.17-20.98-17.48
	c-0.22-29.93-0.43-59.86-0.65-89.79c2.09-9.68,10.71-16.63,20.53-16.6C302.47,320.01,311.17,327.29,312.99,337.24z"/>
<path class="st1" d="M415.61,343.27c-6.86,28.38-13.73,56.77-20.59,85.15c-3.08,9.89-13.23,15.91-23.36,13.91
	c-10.18-2.02-17.28-11.56-16.28-21.92c6.82-29.14,13.64-58.29,20.46-87.43c4.31-8.93,14.32-13.65,23.86-11.31
	C409.43,324.05,416.18,333.17,415.61,343.27z"/>
<path class="st2" d="M312.99,337.24v87.61c-0.68,10.33-9.13,18.57-19.44,19c-10.37,0.43-19.51-7.17-20.98-17.48
	c-0.22-29.93-0.43-59.86-0.65-89.79c2.09-9.68,10.71-16.63,20.53-16.6C302.47,320.01,311.17,327.29,312.99,337.24z"/>
<path class="st2" d="M216.17,441.58c-9.93,3.03-20.68-2.03-24.7-11.63c-7.75-28.91-15.5-57.82-23.25-86.73
	c-0.41-9.9,6.19-18.8,15.7-21.24c9.7-2.5,19.96,2.36,24.22,11.53c7.35,28.26,14.71,56.52,22.06,84.78
	C232.14,428.46,226.04,438.57,216.17,441.58z"/>
<path class="st2" d="M415.61,343.27c-6.86,28.38-13.73,56.77-20.59,85.15c-3.08,9.89-13.23,15.91-23.36,13.91
	c-10.18-2.02-17.28-11.56-16.28-21.92c6.82-29.14,13.64-58.29,20.46-87.43c4.31-8.93,14.32-13.65,23.86-11.31
	C409.43,324.05,416.18,333.17,415.61,343.27z"/>
</svg>
