<?xml version="1.0" encoding="utf-8"?>
<!-- Generator: Adobe Illustrator 26.0.1, SVG Export Plug-In . SVG Version: 6.00 Build 0)  -->
<svg version="1.1" id="Lag_1" xmlns="http://www.w3.org/2000/svg" xmlns:xlink="http://www.w3.org/1999/xlink" x="0px" y="0px"
	 viewBox="0 0 95.67 94.95" style="enable-background:new 0 0 95.67 94.95;" xml:space="preserve">
<style type="text/css">
	.st0{fill:none;stroke:#990F18;stroke-width:5.6693;stroke-miterlimit:10;}
	.st1{fill:#990F18;}
</style>
<circle class="st0" cx="48.14" cy="47.55" r="40.48"/>
<g>
	<path class="st1" d="M66.39,24.75c0.76,0.3,1.04,0.87,1.04,1.68c-0.03,2.95-0.01,5.91-0.01,8.87c0,1.23-0.44,1.64-1.68,1.66
		c-2.09,0.02-4.19,0.01-6.28,0.1c-1.13,0.05-2.23,0.38-2.79,1.5c-0.27,0.54-0.46,1.17-0.47,1.76c-0.05,2.34-0.02,4.68-0.02,7.11
		c0.22,0,0.43,0,0.65,0c2.83,0,5.66,0,8.5,0c1.27,0,1.7,0.44,1.7,1.7c0,3.2,0,6.4,0,9.6c0,1.19-0.44,1.63-1.64,1.63
		c-2.83,0-5.66,0-8.5,0c-0.22,0-0.44,0-0.74,0c0,0.3,0,0.54,0,0.77c0,8.27,0,16.54,0,24.81c0,1.46-0.41,1.86-1.86,1.86
		c-3.24,0-6.48,0-9.73,0c-1.28,0-1.71-0.42-1.71-1.69c0-8.31,0-16.62,0-24.93c0-0.24,0-0.49,0-0.82c-0.26,0-0.48,0-0.69,0
		c-2.4,0-4.8,0-7.2,0c-1.15,0-1.6-0.45-1.61-1.6c-0.01-3.24-0.01-6.48,0-9.73c0-1.14,0.48-1.6,1.61-1.6c2.38-0.01,4.76,0,7.14,0
		c0.22,0,0.44,0,0.75,0c0-0.27,0-0.48,0-0.7c0.01-2.54-0.06-5.09,0.05-7.63c0.16-3.62,1.24-6.93,3.69-9.69
		c2.05-2.31,4.66-3.64,7.65-4.26c0.72-0.15,1.45-0.25,2.17-0.38C59.74,24.75,63.07,24.75,66.39,24.75z"/>
</g>
</svg>
