<?xml version="1.0" encoding="utf-8"?>
<!-- Generator: Adobe Illustrator 26.0.1, SVG Export Plug-In . SVG Version: 6.00 Build 0)  -->
<svg version="1.1" xmlns="http://www.w3.org/2000/svg" xmlns:xlink="http://www.w3.org/1999/xlink" x="0px" y="0px"
	 viewBox="0 0 365.69 79.94" style="enable-background:new 0 0 365.69 79.94;" xml:space="preserve">
<style type="text/css">
	.st0{fill-rule:evenodd;clip-rule:evenodd;fill:#990F18;}
	.st1{fill:#990F18;}
</style>
<g id="Lag_1">
	<g>
		<g>
			<g>
				<path class="st0" d="M40.24,31.28l-13.58,16.5c-4.51-5.5-9.01-11-13.52-16.5c-1.46-2.1-3.85-3.11-6.22-2.81
					c-3.07,0.39-5.62,3.05-5.75,6.56c0,11.99,0,23.98,0,35.96c0.43,3.45,2.95,6.16,6.1,6.71c3.81,0.66,6.54-2.23,6.73-2.44
					c0-0.01,0-0.01,0-0.02c1.07-1.22,2.13-2.44,3.2-3.66c-2.15-1.99-3.47-4.67-3.47-7.61c0-0.78,0.09-1.54,0.27-2.27V49.78
					l4.49,5.53c2.19-1.54,4.97-2.46,8-2.46c3.04,0,5.83,0.93,8.02,2.48L39,49.78v12.04c0.16,0.69,0.24,1.41,0.24,2.14
					c0,2.88-1.26,5.5-3.32,7.48c1.03,1.26,2.05,2.53,3.08,3.79v0.02c1.89,2.3,4.75,2.99,7.39,2.44c3.63-0.75,6.42-4.18,5.86-8.66
					c0-11.13,0-22.27,0-33.4c0.22-4.07-2.51-6.84-5.76-7.17C44.15,28.24,41.66,29.05,40.24,31.28z"/>
			</g>
			<g>
				<path class="st1" d="M115.1,74.5c-2.62,1.2-4.92,1.89-6.61,2.3c-2.43,0.59-4.93,0.89-7.6,0.89c-2.8,0-4.75-0.49-5.85-1.47
					c-1.1-0.98-1.89-2.17-2.36-3.57c-1.82,1.46-3.85,2.67-6.09,3.62c-2.23,0.95-5.16,1.42-8.78,1.42c-3.49,0-6.31-0.6-8.47-1.8
					c-2.15-1.2-3.66-2.71-4.53-4.53c-0.87-1.82-1.3-3.7-1.3-5.63c0-2.93,0.75-5.35,2.24-7.26c1.49-1.91,3.5-3.48,6.02-4.69
					c2.52-1.21,5.85-2.48,10-3.78c2.36-0.75,4.14-1.31,5.35-1.7c1.21-0.39,2.12-0.69,2.71-0.91c0.6-0.22,1.23-0.5,1.89-0.84
					c0-2.3-0.47-4.11-1.42-5.42c-0.94-1.31-2.99-1.96-6.13-1.96c-2.48,0-4.84,0.36-7.08,1.08c-1.46,0.47-2.59,1.02-3.25,1.34
					c-1.25,0.61-2.31,1.23-3.18,1.79c-0.9,0.59-1.96,0.92-3.03,0.81c-1.4-0.14-2.68-0.79-3.5-1.85c-1.56-2.03-1.2-5.28,1.12-7.21
					c1.54-1.16,3.78-2.63,6.71-3.85c3.09-1.29,5.63-1.77,7.69-2.13c2.67-0.47,5.38-0.7,8.11-0.7c6.95,0,12.18,1.33,15.69,3.99
					c3.51,2.66,5.26,6.33,5.26,11v18.35c0,1.74,0.17,3.04,0.5,3.9c0.18,0.46,0.44,0.8,0.77,1.01c0.27,0.17,0.57,0.24,1.04,0.27
					c0.52,0.03,1.35,0.02,2.38-0.26c1.96-0.27,3.8,0.7,4.48,2.22C118.77,70.92,117.64,73.63,115.1,74.5z M91.74,65.37V54.11
					c-4.03,1.62-6.97,3.08-8.82,4.37c-1.86,1.29-2.78,3.04-2.78,5.25c0,1.59,0.46,2.8,1.39,3.64c0.93,0.84,2.01,1.26,3.23,1.26
					c1.16,0,2.32-0.32,3.47-0.96C89.37,67.04,90.54,66.27,91.74,65.37z"/>
				<path class="st1" d="M163.77,68.12c0.15,0.22,2.08,3.18,0.72,6.28c-0.9,2.06-2.7,2.92-3.2,3.15c-1.87,0.86-4.05,0.77-5.93-0.16
					c-0.61-0.3-1.14-0.73-1.62-1.21c-3.61-3.61-6.64-7.38-10.25-10.99l-9.6,10.7c-1.45,1.69-3.6,2.73-5.82,2.55
					c-1.1-0.09-2.17-0.43-3.11-1.03c-2.29-1.46-3.51-4.26-3.15-7.11c0.14-1.05,0.58-2.04,1.19-2.9c3.02-4.3,6.23-9.99,9.26-14.29
					c-3.31-5.4-6.81-9.41-10.12-14.81c-0.86-1.41-1.14-3.13-0.64-4.71c0.49-1.58,1.51-2.97,2.93-3.91c1.54-1.02,3.39-1.4,5.17-1.13
					c1.38,0.21,2.6,1.01,3.47,2.1c3.47,4.34,6.95,8.68,10.42,13.02c3.39-4.1,6.78-8.2,10.17-12.31c0.63-0.77,1.39-1.44,2.29-1.87
					c2.1-1,4.59-0.97,6.67,0.18c2.08,1.15,3.44,3.25,3.69,5.58c0.13,1.19-0.44,2.1-0.64,2.51c-2.38,4.68-9.58,14.01-10.62,15.35
					C157.95,58.12,160.86,63.12,163.77,68.12z"/>
				<path class="st1" d="M191.98,69.97c0,0.9-0.16,1.8-0.57,2.6c-1.56,3.07-4.72,5.06-8.17,5.03c-2.99-0.03-5.76-1.57-7.43-4.03
					c-0.66-0.97-0.95-2.14-0.95-3.31V36.87c0-0.33,0.01-0.65,0.07-0.98c0.7-4.04,4.14-7.08,8.15-7.24c4.25-0.16,8.06,2.94,8.82,7.22
					c0.06,0.33,0.07,0.67,0.07,1V69.97z"/>
				<path class="st1" d="M245.71,36.63c-6.4,9.44-12.79,18.89-19.19,28.33c5.8,0.03,11.59,0.07,17.39,0.1
					c3.13,0.41,5.5,3.06,5.55,6.18c0.05,3.19-2.35,5.96-5.55,6.37c-12.05,0.04-24.1,0.07-36.15,0.11c-0.16,0-2.93-0.05-4.37-2.39
					c-1.06-1.73-0.95-3.99,0.29-5.7c6.33-9.35,12.66-18.69,18.99-28.04c-4.91,0.02-9.81,0.05-14.72,0.07
					c-3.88,0.08-7-3.17-6.85-6.85c0.15-3.47,3.18-6.36,6.85-6.28c17.07-0.03,29.79,0.1,34.77,0.22c0.97,0.02,3.08,0.1,4.04,1.49
					C248.08,32.17,246.39,35.43,245.71,36.63z"/>
				<path class="st1" d="M304.13,53.07c0,4.73-1.03,8.94-3.08,12.64c-2.05,3.7-5.12,6.62-9.21,8.77c-4.09,2.15-9.07,3.22-14.95,3.22
					c-5.88,0-10.86-1.07-14.95-3.22c-4.09-2.15-7.15-5.07-9.19-8.77c-2.04-3.7-3.05-7.91-3.05-12.64c0-3.58,0.57-6.82,1.7-9.75
					c1.13-2.92,2.86-5.51,5.18-7.77c2.32-2.25,5.17-3.99,8.56-5.2c3.39-1.21,7.31-1.82,11.75-1.82c4.48,0,8.43,0.61,11.87,1.84
					c3.43,1.23,6.28,2.95,8.53,5.15c2.25,2.21,3.96,4.79,5.11,7.74C303.55,46.23,304.13,49.5,304.13,53.07z M286.45,53.07
					c0-3.76-0.82-6.71-2.45-8.84c-1.63-2.13-4-3.19-7.11-3.19c-3.08,0-5.43,1.07-7.07,3.19c-1.63,2.13-2.45,5.08-2.45,8.84
					c0,3.73,0.82,6.69,2.47,8.86c1.65,2.18,3.99,3.26,7.04,3.26c3.11,0,5.48-1.08,7.11-3.24C285.63,59.79,286.45,56.83,286.45,53.07
					z"/>
				<path class="st1" d="M364.35,53.04c0,4.73-1.03,8.95-3.08,12.66c-2.05,3.71-5.13,6.63-9.22,8.78
					c-4.09,2.15-9.08,3.22-14.97,3.22s-10.87-1.07-14.97-3.22c-4.09-2.15-7.16-5.07-9.2-8.78c-2.04-3.7-3.06-7.92-3.06-12.66
					c0-3.58,0.57-6.83,1.7-9.76c1.14-2.93,2.86-5.52,5.18-7.78c2.32-2.26,5.18-3.99,8.57-5.21c3.39-1.21,7.32-1.82,11.77-1.82
					c4.48,0,8.45,0.62,11.89,1.84c3.44,1.23,6.29,2.95,8.55,5.16c2.26,2.21,3.96,4.8,5.11,7.75
					C363.77,46.19,364.35,49.46,364.35,53.04z M346.64,53.04c0-3.77-0.82-6.72-2.45-8.85c-1.63-2.13-4.01-3.2-7.12-3.2
					c-3.08,0-5.44,1.07-7.08,3.2c-1.63,2.13-2.45,5.08-2.45,8.85c0,3.74,0.82,6.69,2.47,8.87c1.65,2.18,4,3.27,7.05,3.27
					c3.11,0,5.49-1.08,7.12-3.25C345.83,59.77,346.64,56.8,346.64,53.04z"/>
			</g>
			<path class="st1" d="M180.57,10.01c-1.19,1.01-0.44,2.09-1.71,3.99c-1.33,2-2.74,1.69-3.42,3.42c-0.47,1.19-0.41,2.86,0.57,3.99
				c1.03,1.19,2.76,1.44,3.99,1.14c1.72-0.41,2.03-1.79,3.42-1.71c0.9,0.05,0.98,0.64,2.28,1.14c0.41,0.16,2.51,0.96,3.99,0
				c1.53-0.98,1.96-3.53,1.14-5.14c-0.78-1.52-2.12-1.08-3.42-2.85c-1.3-1.77-0.51-2.95-1.71-3.99
				C184.4,8.88,181.9,8.88,180.57,10.01z"/>
			<ellipse class="st1" cx="179.22" cy="4.37" rx="2.65" ry="3.41"/>
			<ellipse class="st1" cx="186.78" cy="4.31" rx="2.65" ry="3.41"/>
			
				<ellipse transform="matrix(0.8039 -0.5948 0.5948 0.8039 27.909 105.5416)" class="st1" cx="174.01" cy="10.45" rx="2.51" ry="3.22"/>
			<ellipse transform="matrix(0.5 -0.866 0.866 0.5 87.0906 171.8038)" class="st1" cx="192.33" cy="10.48" rx="3.29" ry="2.56"/>
		</g>
	</g>
</g>
<g id="Lag_2">
</g>
</svg>
