<?xml version="1.0" encoding="utf-8"?>
<!-- Generator: Adobe Illustrator 26.0.1, SVG Export Plug-In . SVG Version: 6.00 Build 0)  -->
<svg version="1.1" id="Lag_1" xmlns="http://www.w3.org/2000/svg" xmlns:xlink="http://www.w3.org/1999/xlink" x="0px" y="0px"
	 viewBox="0 0 99.22 99" style="enable-background:new 0 0 99.22 99;" xml:space="preserve">
<style type="text/css">
	.st0{fill:none;stroke:#990F18;stroke-width:5.6693;stroke-miterlimit:10;}
	.st1{fill:#990F18;}
</style>
<circle class="st0" cx="49.56" cy="49.66" r="43.5"/>
<g>
	<path class="st1" d="M49.81,63.74c-7.77,0-14.1-6.32-14.1-14.1s6.32-14.1,14.1-14.1s14.1,6.32,14.1,14.1S57.58,63.74,49.81,63.74z
		 M49.81,40.41c-5.09,0-9.23,4.14-9.23,9.23s4.14,9.23,9.23,9.23s9.23-4.14,9.23-9.23S54.9,40.41,49.81,40.41z"/>
</g>
<g>
	<path class="st1" d="M60.29,76.44H39.32c-8.99,0-16.31-7.32-16.31-16.31V39.16c0-8.99,7.32-16.31,16.31-16.31h20.97
		c8.99,0,16.31,7.32,16.31,16.31v20.97C76.6,69.12,69.28,76.44,60.29,76.44z M39.32,27.72c-6.31,0-11.45,5.13-11.45,11.45v20.97
		c0,6.31,5.13,11.45,11.45,11.45h20.97c6.31,0,11.45-5.13,11.45-11.45V39.16c0-6.31-5.13-11.45-11.45-11.45H39.32z"/>
</g>
<g>
	<circle class="st1" cx="63.96" cy="34.98" r="3.17"/>
</g>
</svg>
