<?xml version="1.0" encoding="utf-8"?>
<!-- Generator: Adobe Illustrator 26.0.1, SVG Export Plug-In . SVG Version: 6.00 Build 0)  -->
<svg version="1.1" id="Lag_1" xmlns="http://www.w3.org/2000/svg" xmlns:xlink="http://www.w3.org/1999/xlink" x="0px" y="0px"
	 viewBox="0 0 61 60.99" style="enable-background:new 0 0 61 60.99;" xml:space="preserve">
<style type="text/css">
	.st0{fill:#990F18;}
	.st1{fill:none;stroke:#990F18;stroke-width:4.252;stroke-miterlimit:10;}
</style>
<g>
	<g>
		<path class="st0" d="M26.13,27.72c-2.11,1.7-0.86,3.6-3.14,6.84c-2.39,3.4-4.82,2.8-6.08,5.78c-0.86,2.04-0.84,4.94,0.8,6.95
			c1.72,2.11,4.72,2.62,6.86,2.16c2.99-0.64,3.6-3.01,6-2.81c1.56,0.13,1.66,1.16,3.9,2.08c0.69,0.29,4.29,1.77,6.91,0.18
			c2.69-1.63,3.55-6.03,2.21-8.85c-1.28-2.68-3.62-1.96-5.79-5.1c-2.17-3.13-0.74-5.13-2.78-7C32.81,25.94,28.48,25.82,26.13,27.72z
			"/>
		
			<ellipse transform="matrix(0.0262 -0.9997 0.9997 0.0262 5.5556 41.4667)" class="st0" cx="24.06" cy="17.88" rx="5.9" ry="4.59"/>
		
			<ellipse transform="matrix(0.0262 -0.9997 0.9997 0.0262 18.0478 54.7635)" class="st0" cx="37.13" cy="18.12" rx="5.9" ry="4.59"/>
		
			<ellipse transform="matrix(0.8211 -0.5707 0.5707 0.8211 -13.4378 13.4662)" class="st0" cx="14.77" cy="28.17" rx="4.34" ry="5.59"/>
		
			<ellipse transform="matrix(0.5202 -0.8541 0.8541 0.5202 -2.5339 53.6269)" class="st0" cx="46.46" cy="29.07" rx="5.71" ry="4.43"/>
	</g>
	<ellipse class="st1" cx="30.58" cy="30.8" rx="27.74" ry="27.79"/>
</g>
</svg>
