<?xml version="1.0" encoding="utf-8"?>
<!-- Generator: Adobe Illustrator 26.0.0, SVG Export Plug-In . SVG Version: 6.00 Build 0)  -->
<svg version="1.1" id="Layer_2" xmlns="http://www.w3.org/2000/svg" xmlns:xlink="http://www.w3.org/1999/xlink" x="0px" y="0px"
	 viewBox="0 0 61 61" style="enable-background:new 0 0 61 61;" xml:space="preserve">
<style type="text/css">
	.st0{fill:#8A0002;stroke:#8A0002;stroke-width:0.9995;stroke-miterlimit:10;}
	.st1{fill:#FFFFFF;stroke:#8A0002;stroke-miterlimit:10;}
	.st2{fill:#8A0002;stroke:#8A0002;stroke-miterlimit:10;}
</style>
<path class="st0" d="M22,52c-1.1,0.4-2.3-0.2-2.7-1.4c-0.9-3.4-1.7-6.8-2.6-10.3c0-1.2,0.7-2.2,1.7-2.5c1.1-0.3,2.2,0.3,2.7,1.4
	c0.8,3.3,1.6,6.7,2.4,10C23.7,50.4,23.1,51.6,22,52z"/>
<path class="st0" d="M32.7,39.6V50c-0.1,1.2-1,2.2-2.1,2.3c-1.1,0.1-2.1-0.8-2.3-2.1c0-3.5,0-7.1-0.1-10.6c0.2-1.1,1.2-2,2.3-2
	C31.5,37.6,32.5,38.4,32.7,39.6z"/>
<path class="st0" d="M44,40.3c-0.8,3.4-1.5,6.7-2.3,10.1c-0.3,1.2-1.5,1.9-2.6,1.6c-1.1-0.2-1.9-1.4-1.8-2.6
	c0.8-3.5,1.5-6.9,2.3-10.4c0.5-1.1,1.6-1.6,2.6-1.3C43.3,38.1,44,39.1,44,40.3z"/>
<path class="st0" d="M60.1,32.7c0-3.3,0-6.7,0-10c0-0.2-0.1-1-0.7-1.6c-0.6-0.5-1.3-0.6-1.6-0.6c-1.4-0.1-5.4-0.1-10.6,0
	c-0.1,0-0.3,0-0.5-0.2c-0.2-0.1-0.2-0.3-0.3-0.4c-2.8-6-5.6-12-8.4-18.1c-0.8-1-2.1-1.2-3.1-0.6c-0.8,0.6-1.2,1.6-0.9,2.7
	c2.5,5.4,4.9,10.7,7.4,16.1c0,0,0.1,0.1,0,0.2c0,0.1-0.2,0.2-0.4,0.2H19.7c-0.1,0-0.1,0-0.1-0.1c-0.1-0.1-0.1-0.2,0-0.4
	c2.4-5.3,4.9-10.5,7.3-15.8c0.4-1.2-0.1-2.5-1.1-3c-1.1-0.6-2.5-0.2-3.1,1c-2.8,6-5.5,11.9-8.3,17.9c0,0.1-0.1,0.2-0.2,0.3
	c-0.1,0.1-0.3,0.1-0.3,0.1c-3.6,0-7.3,0.1-10.9,0.1c-0.1,0-1,0-1.7,0.8c-0.4,0.5-0.5,1-0.5,1.2v10.6c0,0.2,0.2,0.8,0.6,1.2
	c0.5,0.6,1,0.8,1.3,0.8c0.6,0,1.2,0,1.8,0c0,0,0.1,0,0.1,0c0.1,0,0.1,0.1,0.1,0.1c0.1,0.1,0.1,0.1,0.1,0.2c0,0,0,0.1,0.1,0.2
	C6.5,43,8.2,50.3,9.9,57.5c0,0.2,0.1,0.8,0.6,1.4c0.6,0.7,1.4,0.7,1.6,0.7h36.9c0.2,0,0.9-0.1,1.4-0.7c0.5-0.6,0.6-1.2,0.6-1.4
	c1.7-7.3,3.4-14.7,5-22c0,0,0-0.2,0.2-0.3c0.1-0.1,0.3-0.1,0.3-0.1c0.4,0,0.8,0,1.2,0c0.1,0,1,0,1.6-0.6
	C60.1,33.8,60.1,32.8,60.1,32.7z M51.2,35.7C51.2,35.7,51.2,35.7,51.2,35.7C49.8,41.9,48.4,48,47,54.1c0,0,0,0.1,0,0.1
	c0,0.1,0,0.1,0,0.2c0,0.1,0,0.1-0.1,0.2c0,0-0.1,0.1-0.1,0.1c-0.1,0-0.1,0-0.2,0c-0.1,0-0.1,0-0.1,0H14.2c0,0-0.1,0-0.1,0
	c-0.1,0-0.2-0.1-0.2-0.2c0,0,0-0.1-0.1-0.3c0,0,0,0,0-0.1c-2.5-10.6-4.3-18.4-4.4-18.5c0,0,0-0.1,0-0.2c0,0,0-0.1,0-0.1
	c0-0.1,0.1-0.1,0.1-0.1c0.1,0,0.2,0,0.2,0c0.1,0,17.2,0,40.9,0c0,0,0.1,0,0.1,0c0.1,0,0.3,0,0.3,0.1C51.3,35.4,51.3,35.5,51.2,35.7z
	 M55.4,29.9c0,0.2-0.1,0.3-0.3,0.3H5.7c-0.1,0-0.3-0.1-0.3-0.3v-4.1c0-0.2,0.1-0.3,0.3-0.3h49.5c0.1,0,0.3,0.1,0.3,0.3L55.4,29.9
	L55.4,29.9z"/>
<path class="st1" d="M22,52c-1.1,0.4-2.3-0.2-2.7-1.4c-0.9-3.4-1.7-6.8-2.6-10.3c0-1.2,0.7-2.2,1.7-2.5c1.1-0.3,2.2,0.3,2.7,1.4
	c0.8,3.3,1.6,6.7,2.4,10C23.7,50.4,23.1,51.6,22,52z"/>
<path class="st1" d="M32.7,39.6V50c-0.1,1.2-1,2.2-2.1,2.3c-1.1,0.1-2.1-0.8-2.3-2.1c0-3.5,0-7.1-0.1-10.6c0.2-1.1,1.2-2,2.3-2
	C31.5,37.6,32.5,38.4,32.7,39.6z"/>
<path class="st1" d="M44,40.3c-0.8,3.4-1.5,6.7-2.3,10.1c-0.3,1.2-1.5,1.9-2.6,1.6c-1.1-0.2-1.9-1.4-1.8-2.6
	c0.8-3.5,1.5-6.9,2.3-10.4c0.5-1.1,1.6-1.6,2.6-1.3C43.3,38.1,44,39.1,44,40.3z"/>
<path class="st2" d="M32.7,39.6V50c-0.1,1.2-1,2.2-2.1,2.3c-1.1,0.1-2.1-0.8-2.3-2.1c0-3.5,0-7.1-0.1-10.6c0.2-1.1,1.2-2,2.3-2
	C31.5,37.6,32.5,38.4,32.7,39.6z"/>
<path class="st2" d="M22,52c-1.1,0.4-2.3-0.2-2.7-1.4c-0.9-3.4-1.7-6.8-2.6-10.3c0-1.2,0.7-2.2,1.7-2.5c1.1-0.3,2.2,0.3,2.7,1.4
	c0.8,3.3,1.6,6.7,2.4,10C23.7,50.4,23.1,51.6,22,52z"/>
<path class="st2" d="M44,40.3c-0.8,3.4-1.5,6.7-2.3,10.1c-0.3,1.2-1.5,1.9-2.6,1.6c-1.1-0.2-1.9-1.4-1.8-2.6
	c0.8-3.5,1.5-6.9,2.3-10.4c0.5-1.1,1.6-1.6,2.6-1.3C43.3,38.1,44,39.1,44,40.3z"/>
</svg>
